<?xml version="1.0" encoding="utf-8"?>
<!-- Generator: Adobe Illustrator 22.0.1, SVG Export Plug-In . SVG Version: 6.00 Build 0)  -->
<svg version="1.1" id="Layer_1" xmlns="http://www.w3.org/2000/svg" xmlns:xlink="http://www.w3.org/1999/xlink" x="0px" y="0px"
	 viewBox="0 0 188.6 188.6" style="enable-background:new 0 0 188.6 188.6;" xml:space="preserve">
<style type="text/css">
	.st0{fill:#424242;}
	.st1{fill:#F6CA19;}
	.st2{fill:#252525;}
	.st3{fill:#7F6A13;}
</style>
<ellipse transform="matrix(0.7071 -0.7071 0.7071 0.7071 -39.0649 94.3109)" class="st0" cx="94.3" cy="94.3" rx="92.9" ry="95.7"/>
<path class="st1" d="M151.9,151.9C121,182.7,70.2,182,38.5,150.2c-3.5-3.5-6.7-7.3-9.5-11.4c-1.4-2-2.7-4.1-3.9-6.2
	C7.3,101.8,11.1,62.4,36.7,36.8s65-29.4,95.9-11.7c2.1,1.2,4.2,2.5,6.2,3.9c4.1,2.8,7.9,6,11.4,9.5C182,70.3,182.7,121,151.9,151.9z
	"/>
<path class="st2" d="M138.8,28.9L119,48.7l-5.1-5.1L132.6,25C134.7,26.2,136.8,27.5,138.8,28.9z"/>
<path class="st2" d="M47.7,120l-18.8,18.8c-1.4-2-2.7-4.1-3.9-6.2l17.7-17.7L47.7,120z"/>
<ellipse transform="matrix(0.7071 -0.7071 0.7071 0.7071 -39.2569 91.4247)" class="st2" cx="90.7" cy="93.1" rx="54.3" ry="58.3"/>
<path class="st1" d="M166.2,129.8c3-6.5,4.3-13.6,4-20.7c-0.5-7.1-2.5-14-5.9-20.3c-4-7.2-8.9-13.7-14.8-19.4l-6.9-6.9L126.2,46
	l-2.2-2.2l-14.7,14.6l2.3,2.3L128,77l5.8,5.8c3.3,3.2,6.1,6.9,8.4,10.8c2,3.5,3.1,7.5,3.2,11.5c0,4.3-1,8.6-3,12.5
	c-2.1,4.4-5.5,9-10.3,13.7c-4.8,4.7-9.5,8.4-13.9,10.4c-3.9,2-8.3,3.1-12.7,3.2c-4.1,0-8.1-1.1-11.7-3c-4.1-2.2-7.8-5-11-8.3
	l-3.6-3.6l47.1-47.1l-2.3-2.3l-16.4-16.4l-2.3-2.3L43.8,124l2.2,2.2l16.4,16.4l8,8c5.5,5.7,12,10.4,19,14.1
	c12.8,6.7,27.9,7.1,41,0.9c7-3.1,14-8.2,20.9-15.1C158.1,143.7,163.1,136.7,166.2,129.8z"/>
<path class="st1" d="M99.3,24c-6.3-3.2-13.2-5-20.2-5.3C71.9,18.5,64.7,20,58.2,23c-7,3.1-14,8.2-20.9,15S25.5,51.9,22.4,58.8
	c-3,6.5-4.3,13.6-4,20.7c0.5,7.1,2.5,14,5.9,20.3c3.8,7,8.7,13.5,14.4,19.1l14.7-14.7c-2.7-2.8-5-5.9-6.9-9.3
	c-2-3.5-3.1-7.4-3.3-11.5c0-4.4,1-8.6,3-12.5c2.1-4.4,5.5-9,10.3-13.7s9.5-8.3,13.9-10.4c3.9-2,8.3-3.1,12.7-3.2
	c4.1,0,8.1,1.1,11.7,3c3.4,1.8,6.6,4.1,9.4,6.8l14.7-14.7l-0.6-0.7C112.7,32.4,106.3,27.6,99.3,24z"/>
<rect x="106.4" y="61.8" transform="matrix(0.7071 -0.7071 0.7071 0.7071 -21.3681 101.6385)" class="st3" width="11.3" height="29.5"/>
</svg>
