<svg xmlns="http://www.w3.org/2000/svg" width="51.039" height="51.039" viewBox="0 0 51.039 51.039">
    <defs>
        <style>
            .cls-1{fill:#424242}.cls-2{fill:#f6ca19}.cls-3{fill:#252525}.cls-4{fill:#7f6a13}
        </style>
    </defs>
    <g id="logo" transform="translate(39.046 39.051)">
        <ellipse id="Ellipse_25" cx="17.771" cy="18.318" class="cls-1" data-name="Ellipse 25" rx="17.771" ry="18.318" transform="rotate(-45 -36.325 40.173)"/>
        <path id="Path_217" d="M40.462 40.468a15.34 15.34 0 0 1-21.7-.325 15.976 15.976 0 0 1-1.826-2.174c-.27-.383-.519-.783-.752-1.188a15 15 0 0 1 20.59-20.59c.406.233.8.482 1.188.752a16.093 16.093 0 0 1 2.174 1.826 15.342 15.342 0 0 1 .326 21.699z" class="cls-2" data-name="Path 217" transform="translate(-42.975 -42.985)"/>
        <path id="Path_218" d="M118.748 25.752l-3.781 3.781-.966-.97L117.559 25c.406.233.8.482 1.189.752z" class="cls-3" data-name="Path 218" transform="translate(-123.76 -51.794)"/>
        <path id="Path_219" d="M29.351 115.9l-3.6 3.6c-.27-.383-.519-.783-.752-1.188l3.381-3.379z" class="cls-3" data-name="Path 219" transform="translate(-51.79 -124.516)"/>
        <ellipse id="Ellipse_26" cx="10.389" cy="11.148" class="cls-3" data-name="Ellipse 26" rx="10.389" ry="11.148" transform="rotate(-45 -31.983 28.388)"/>
        <path id="Path_220" d="M67.19 60.232a8.628 8.628 0 0 0 .765-3.969 9.5 9.5 0 0 0-1.123-3.881A15.99 15.99 0 0 0 64 48.663l-1.326-1.328-3.135-3.135-.425-.427-2.807 2.8.433.427 3.14 3.127 1.112 1.114a9.522 9.522 0 0 1 1.608 2.076 4.7 4.7 0 0 1 .618 2.2 5.166 5.166 0 0 1-.574 2.388 9.573 9.573 0 0 1-1.969 2.623 10.236 10.236 0 0 1-2.654 2 5.45 5.45 0 0 1-2.43.614 4.874 4.874 0 0 1-2.243-.574 8.6 8.6 0 0 1-2.1-1.584l-.679-.679 9.015-9.017-.432-.432-3.131-3.129-.432-.432L43.76 59.122l.429.427 3.136 3.132 1.531 1.531a14.241 14.241 0 0 0 3.636 2.69 8.8 8.8 0 0 0 7.846.18 13.614 13.614 0 0 0 3.992-2.88 13.4 13.4 0 0 0 2.86-3.97z" class="cls-2" data-name="Path 220" transform="translate(-66.961 -66.973)"/>
        <path id="Path_221" d="M33.851 19.7a9.329 9.329 0 0 0-3.867-1.014 8.965 8.965 0 0 0-3.984.825 13.682 13.682 0 0 0-3.992 2.88 13.453 13.453 0 0 0-2.861 3.976 8.575 8.575 0 0 0-.765 3.963 9.329 9.329 0 0 0 1.118 3.88 15.557 15.557 0 0 0 2.756 3.651l2.811-2.811a9.2 9.2 0 0 1-1.322-1.78 4.749 4.749 0 0 1-.624-2.193 5.214 5.214 0 0 1 .574-2.4 9.573 9.573 0 0 1 1.969-2.623 10.344 10.344 0 0 1 2.658-2 5.509 5.509 0 0 1 2.43-.614 4.9 4.9 0 0 1 2.248.579 7.758 7.758 0 0 1 1.8 1.305l2.811-2.809-.122-.124a14.245 14.245 0 0 0-3.638-2.691z" class="cls-2" data-name="Path 221" transform="translate(-46.43 -46.688)"/>
        <path id="Rectangle_529" d="M0 0h2.155v5.655H0z" class="cls-4" data-name="Rectangle 529" transform="rotate(-45 -28.367 6.496)"/>
    </g>
</svg>
