<svg xmlns="http://www.w3.org/2000/svg" width="12.19" height="15.162" viewBox="0 0 12.19 15.162">
    <defs>
        <style>
            .cls-1{fill:#fff}
        </style>
    </defs>
    <path id="Path_14" d="M6.743-87.878a.882.882 0 0 0-.648-.267.882.882 0 0 0-.648.267L.267-82.7a.882.882 0 0 0-.267.651.882.882 0 0 0 .267.648l.876.838a.882.882 0 0 0 .648.267.882.882 0 0 0 .648-.267L6.1-84.221l3.7 3.657a.762.762 0 0 0 .61.267.882.882 0 0 0 .648-.267l.876-.838a.882.882 0 0 0 .267-.648.882.882 0 0 0-.267-.648zm-1.3-7.314a.882.882 0 0 1 .648-.267.882.882 0 0 1 .648.267l5.181 5.181a.882.882 0 0 1 .267.648.882.882 0 0 1-.267.648l-.876.838a.882.882 0 0 1-.648.267.882.882 0 0 1-.648-.267L6.1-91.535l-3.662 3.657a.882.882 0 0 1-.648.267.882.882 0 0 1-.648-.267l-.876-.838A.882.882 0 0 1 0-89.364a.882.882 0 0 1 .267-.648z" class="cls-1" data-name="Path 14" transform="translate(0 95.459)"/>
</svg>
