<svg xmlns="http://www.w3.org/2000/svg" width="12.19" height="15.162" viewBox="0 0 12.19 15.162">
    <defs>
        <style>
            .cls-1{fill:#fff}
        </style>
    </defs>
    <path id="Path_14" d="M6.743 7.581a.92.92 0 0 0-1.3 0L.267 12.762a.92.92 0 0 0 0 1.3l.876.838a.882.882 0 0 0 .648.267.882.882 0 0 0 .648-.267L6.1 11.238 9.79 14.9a.762.762 0 0 0 .61.267.882.882 0 0 0 .648-.267l.876-.838a.92.92 0 0 0 0-1.3zM5.448.267a.92.92 0 0 1 1.3 0l5.181 5.181a.92.92 0 0 1 0 1.3l-.876.838a.92.92 0 0 1-1.3 0L6.1 3.924 2.438 7.581a.882.882 0 0 1-.648.267.882.882 0 0 1-.648-.267l-.875-.838a.92.92 0 0 1 0-1.3z" class="cls-1" data-name="Path 14" transform="rotate(180 6.095 7.581)"/>
</svg>
