<svg xmlns="http://www.w3.org/2000/svg" width="152.053" height="51.039" viewBox="0 0 152.053 51.039">
    <defs>
        <style>
            .cls-1{fill:#424242}.cls-2{fill:#f6ca19}.cls-3{fill:#252525}.cls-4{fill:#7f6a13}
        </style>
    </defs>
    <g id="logo" transform="translate(39.046 39.051)">
        <ellipse id="Ellipse_25" cx="17.771" cy="18.318" class="cls-1" data-name="Ellipse 25" rx="17.771" ry="18.318" transform="rotate(-45 -36.325 40.173)"/>
        <path id="Path_217" d="M40.462 40.468a15.34 15.34 0 0 1-21.7-.325 15.976 15.976 0 0 1-1.826-2.174c-.27-.383-.519-.783-.752-1.188a15 15 0 0 1 20.59-20.59c.406.233.8.482 1.188.752a16.093 16.093 0 0 1 2.174 1.826 15.342 15.342 0 0 1 .326 21.699z" class="cls-2" data-name="Path 217" transform="translate(-42.975 -42.985)"/>
        <path id="Path_218" d="M118.748 25.752l-3.781 3.781-.966-.97L117.559 25c.406.233.8.482 1.189.752z" class="cls-3" data-name="Path 218" transform="translate(-123.76 -51.794)"/>
        <path id="Path_219" d="M29.351 115.9l-3.6 3.6c-.27-.383-.519-.783-.752-1.188l3.381-3.379z" class="cls-3" data-name="Path 219" transform="translate(-51.79 -124.516)"/>
        <ellipse id="Ellipse_26" cx="10.389" cy="11.148" class="cls-3" data-name="Ellipse 26" rx="10.389" ry="11.148" transform="rotate(-45 -31.983 28.388)"/>
        <path id="Path_220" d="M67.19 60.232a8.628 8.628 0 0 0 .765-3.969 9.5 9.5 0 0 0-1.123-3.881A15.99 15.99 0 0 0 64 48.663l-1.326-1.328-3.135-3.135-.425-.427-2.807 2.8.433.427 3.14 3.127 1.112 1.114a9.522 9.522 0 0 1 1.608 2.076 4.7 4.7 0 0 1 .618 2.2 5.166 5.166 0 0 1-.574 2.388 9.573 9.573 0 0 1-1.969 2.623 10.236 10.236 0 0 1-2.654 2 5.45 5.45 0 0 1-2.43.614 4.874 4.874 0 0 1-2.243-.574 8.6 8.6 0 0 1-2.1-1.584l-.679-.679 9.015-9.017-.432-.432-3.131-3.129-.432-.432L43.76 59.122l.429.427 3.136 3.132 1.531 1.531a14.241 14.241 0 0 0 3.636 2.69 8.8 8.8 0 0 0 7.846.18 13.614 13.614 0 0 0 3.992-2.88 13.4 13.4 0 0 0 2.86-3.97z" class="cls-2" data-name="Path 220" transform="translate(-66.961 -66.973)"/>
        <path id="Path_221" d="M33.851 19.7a9.329 9.329 0 0 0-3.867-1.014 8.965 8.965 0 0 0-3.984.825 13.682 13.682 0 0 0-3.992 2.88 13.453 13.453 0 0 0-2.861 3.976 8.575 8.575 0 0 0-.765 3.963 9.329 9.329 0 0 0 1.118 3.88 15.557 15.557 0 0 0 2.756 3.651l2.811-2.811a9.2 9.2 0 0 1-1.322-1.78 4.749 4.749 0 0 1-.624-2.193 5.214 5.214 0 0 1 .574-2.4 9.573 9.573 0 0 1 1.969-2.623 10.344 10.344 0 0 1 2.658-2 5.509 5.509 0 0 1 2.43-.614 4.9 4.9 0 0 1 2.248.579 7.758 7.758 0 0 1 1.8 1.305l2.811-2.809-.122-.124a14.245 14.245 0 0 0-3.638-2.691z" class="cls-2" data-name="Path 221" transform="translate(-46.43 -46.688)"/>
        <path id="Rectangle_529" d="M0 0h2.155v5.655H0z" class="cls-4" data-name="Rectangle 529" transform="rotate(-45 -28.367 6.496)"/>
        <path id="Path_222" d="M228.38 52.568a5.482 5.482 0 0 1 1.929 3.232h-3.049a2.8 2.8 0 0 0-1.035-1.3 2.9 2.9 0 0 0-1.659-.471 2.52 2.52 0 0 0-2.036.926 3.8 3.8 0 0 0-.775 2.474 3.629 3.629 0 0 0 .775 2.467 2.534 2.534 0 0 0 2.036.917 2.9 2.9 0 0 0 1.659-.471 2.8 2.8 0 0 0 1.035-1.28h3.048a5.5 5.5 0 0 1-1.929 3.224 5.777 5.777 0 0 1-3.762 1.2 5.932 5.932 0 0 1-3.048-.765 5.2 5.2 0 0 1-2.028-2.147 7.28 7.28 0 0 1 0-6.3 5.2 5.2 0 0 1 2.028-2.147 5.932 5.932 0 0 1 3.048-.765 5.813 5.813 0 0 1 3.763 1.206z" class="cls-3" data-name="Path 222" transform="translate(-208.525 -73.12)"/>
        <path id="Path_223" d="M291.58 65.075a3.548 3.548 0 0 1 1.845-.505v3.081h-.825a2.845 2.845 0 0 0-1.778.488 1.966 1.966 0 0 0-.631 1.651v4.275h-2.87v-9.394h2.87v1.768a4.1 4.1 0 0 1 1.389-1.364z" class="cls-3" data-name="Path 223" transform="translate(-263.914 -83.792)"/>
        <path id="Path_224" d="M323.315 65.1l2.256 5.758 2.1-5.758h3.182L325 78.973h-3.165l2.2-4.832L320.1 65.1z" class="cls-3" data-name="Path 224" transform="translate(-290.422 -84.221)"/>
        <path id="Path_225" d="M389.267 65.054a3.982 3.982 0 0 1 1.449 1.667 6.453 6.453 0 0 1 0 5.123 3.971 3.971 0 0 1-1.449 1.674 3.787 3.787 0 0 1-2.078.574 3.4 3.4 0 0 1-1.852-.488 2.83 2.83 0 0 1-1.127-1.339v6.2h-2.88V64.591h2.88v1.7a2.823 2.823 0 0 1 1.127-1.339 3.4 3.4 0 0 1 1.862-.482 3.8 3.8 0 0 1 2.069.582zm-4.495 2.558a2.72 2.72 0 0 0 0 3.343 2.116 2.116 0 0 0 2.981.015 2.8 2.8 0 0 0 0-3.366 2.126 2.126 0 0 0-2.981 0z" class="cls-3" data-name="Path 225" transform="translate(-339.935 -83.712)"/>
        <path id="Path_226" d="M443.243 62.316v2.474h-1.3a3.737 3.737 0 0 1-2.568-.815 3.446 3.446 0 0 1-.915-2.7v-3.447h-1.26V55.4h1.263v-2.3h2.87v2.3h1.887v2.424h-1.887v3.5a1.059 1.059 0 0 0 .228.775 1.089 1.089 0 0 0 .765.218z" class="cls-3" data-name="Path 226" transform="translate(-385.114 -74.517)"/>
        <path id="Path_227" d="M482.073 65.061a4.258 4.258 0 0 1 1.734 1.674 5.5 5.5 0 0 1 0 5.119 4.258 4.258 0 0 1-1.734 1.674 5.683 5.683 0 0 1-5.01 0 4.241 4.241 0 0 1-1.738-1.678 5.495 5.495 0 0 1 0-5.115 4.241 4.241 0 0 1 1.741-1.674 5.683 5.683 0 0 1 5.01 0zm-3.89 2.509a2.917 2.917 0 0 0 0 3.444 1.845 1.845 0 0 0 1.389.589 1.818 1.818 0 0 0 1.382-.589 2.95 2.95 0 0 0 0-3.444 1.81 1.81 0 0 0-1.382-.6 1.839 1.839 0 0 0-1.389.6z" class="cls-3" data-name="Path 227" transform="translate(-415.432 -83.72)"/>
        <path id="Path_228" d="M543.408 61.02a5.247 5.247 0 0 1-2.155 2.1 6.873 6.873 0 0 1-3.308.765h-4.495V51.99h4.495a6.987 6.987 0 0 1 3.316.741 5.167 5.167 0 0 1 2.147 2.088 6.8 6.8 0 0 1 0 6.2zm-3.1-.6a3.837 3.837 0 0 0 0-5.017 3.634 3.634 0 0 0-2.618-.892h-1.364v6.8h1.364a3.642 3.642 0 0 0 2.62-.888z" class="cls-2" data-name="Path 228" transform="translate(-462.946 -73.618)"/>
        <path id="Path_229" d="M608.561 63.9h-2.88l-4.811-7.308V63.9H598V52h2.87l4.814 7.375V52h2.88z" class="cls-2" data-name="Path 229" transform="translate(-515.144 -73.628)"/>
        <path id="Path_230" d="M666.448 54.3v2.488h4.018v2.168h-4.018v2.643h4.529v2.3h-7.407V52h7.407v2.3z" class="cls-2" data-name="Path 230" transform="translate(-568.167 -73.628)"/>
        <path id="Path_231" d="M717.4 61.474a3.382 3.382 0 0 1-1.414 1.263 4.975 4.975 0 0 1-2.264.471 5.34 5.34 0 0 1-3.3-.976 3.534 3.534 0 0 1-1.412-2.732h3.062a1.621 1.621 0 0 0 .478 1.062 1.475 1.475 0 0 0 1.052.383 1.229 1.229 0 0 0 .876-.3 1.068 1.068 0 0 0 .319-.809 1.051 1.051 0 0 0-.295-.765 2.313 2.313 0 0 0-.737-.484c-.291-.13-.7-.283-1.211-.463a14.745 14.745 0 0 1-1.845-.75 3.385 3.385 0 0 1-1.229-1.077 3.54 3.54 0 0 1 .038-3.689 3.423 3.423 0 0 1 1.491-1.186 5.419 5.419 0 0 1 2.184-.422 4.889 4.889 0 0 1 3.157.943 3.6 3.6 0 0 1 1.322 2.593h-3.122a1.594 1.594 0 0 0-.429-.934 1.271 1.271 0 0 0-.928-.343 1.2 1.2 0 0 0-.815.27 1.11 1.11 0 0 0-.035 1.506 2.09 2.09 0 0 0 .7.48q.423.191 1.213.473a13.389 13.389 0 0 1 1.868.765 3.583 3.583 0 0 1 1.246 1.1 3.149 3.149 0 0 1 .522 1.887 3.288 3.288 0 0 1-.492 1.734z" class="cls-2" data-name="Path 231" transform="translate(-604.887 -72.817)"/>
    </g>
</svg>
